HIERARCHY
ROOT Hips
{
	OFFSET 0.00000 0.00000 0.00000
	CHANNELS 6 Xposition Yposition Zposition Zrotation Yrotation Xrotation 
	JOINT LHipJoint
	{
		OFFSET 0 0 0
		CHANNELS 3 Zrotation Yrotation Xrotation
		JOINT LeftHip
		{
			OFFSET 1.53927 -1.56553 0.51726
			CHANNELS 3 Zrotation Yrotation Xrotation
			JOINT LeftKnee
			{
				OFFSET 2.38199 -6.54447 0.00000
				CHANNELS 3 Zrotation Yrotation Xrotation
				JOINT LeftAnkle
				{
					OFFSET 2.35499 -6.47028 0.00000
					CHANNELS 3 Zrotation Yrotation Xrotation
					JOINT LeftToe
					{
						OFFSET 0.13641 -0.37478 1.84251
						CHANNELS 3 Zrotation Yrotation Xrotation
						End Site
						{
							OFFSET 0.00000 -0.00000 0.95212
						}
					}
				}
			}
		}
	}
	JOINT RHipJoint
	{
		OFFSET 0 0 0
		CHANNELS 3 Zrotation Yrotation Xrotation
		JOINT RightHip
		{
			OFFSET -1.43919 -1.56553 0.51726
			CHANNELS 3 Zrotation Yrotation Xrotation
			JOINT RightKnee
			{
				OFFSET -2.34860 -6.45274 0.00000
				CHANNELS 3 Zrotation Yrotation Xrotation
				JOINT RightAnkle
				{
					OFFSET -2.25563 -6.19730 0.00000
					CHANNELS 3 Zrotation Yrotation Xrotation
					JOINT RightToe
					{
						OFFSET -0.19755 -0.54277 1.84912
						CHANNELS 3 Zrotation Yrotation Xrotation
						End Site
						{
							OFFSET -0.00000 -0.00000 0.97032
						}
					}
				}
			}
		}
	}
	JOINT lowerback
	{
		OFFSET 0 0 0
		CHANNELS 3 Zrotation Yrotation Xrotation
		JOINT Chest
		{
			OFFSET -0.06402 1.88434 -0.00445
			CHANNELS 3 Zrotation Yrotation Xrotation
			JOINT Chest2
			{
				OFFSET 0.00756 1.88511 0.04237
				CHANNELS 3 Zrotation Yrotation Xrotation
				JOINT lowerneck
				{
					OFFSET 0 0 0
					CHANNELS 3 Zrotation Yrotation Xrotation
					JOINT Neck
					{
						OFFSET -0.06230 1.34710 0.03308
						CHANNELS 3 Zrotation Yrotation Xrotation
						JOINT Head
						{
							OFFSET -0.02442 1.34501 -0.13654
							CHANNELS 3 Zrotation Yrotation Xrotation
							End Site
							{
								OFFSET -0.00508 1.35584 -0.05075
							}
						}
					}
				}
				JOINT LeftCollar
				{
					OFFSET 0 0 0
					CHANNELS 3 Zrotation Yrotation Xrotation
					JOINT LeftShoulder
					{
						OFFSET 2.76911 0.54460 0.39412
CHANNELS 3 Zrotation Xrotation Yrotation
						JOINT LeftElbow
						{
OFFSET 0 -4.409190 -0.000000
CHANNELS 3 Zrotation Xrotation Yrotation
							JOINT LeftWrist
							{
OFFSET 0 -3.038570 -0.000000
CHANNELS 3 Zrotation Xrotation Yrotation
								JOINT lhand
								{
									OFFSET 0 0 0
CHANNELS 3 Zrotation Xrotation Yrotation
									JOINT LFingers
									{
OFFSET 0 -0.523210 -0.000000
CHANNELS 3 Zrotation Xrotation Yrotation
										End Site
										{
OFFSET 0 -0.421820 -0.000000
										}
									}
								}
								JOINT LThumb
								{
OFFSET 0 0.000000 0.000000
CHANNELS 3 Zrotation Xrotation Yrotation
									End Site
									{
OFFSET 0 -0.428260 0.428260
									}
								}
							}
						}
					}
				}
				JOINT RightCollar
				{
					OFFSET 0 0 0
					CHANNELS 3 Zrotation Yrotation Xrotation
					JOINT RightShoulder
					{
						OFFSET -2.99050 0.75949 0.48975
CHANNELS 3 Zrotation Xrotation Yrotation
						JOINT RightElbow
						{
OFFSET 0 -4.619690 -0.000000
CHANNELS 3 Zrotation Xrotation Yrotation
							JOINT RightWrist
							{
OFFSET 0 -3.093820 -0.000000
CHANNELS 3 Zrotation Xrotation Yrotation
								JOINT rhand
								{
									OFFSET 0 0 0
CHANNELS 3 Zrotation Xrotation Yrotation
									JOINT RFingers
									{
OFFSET 0 -0.500900 -0.000000
CHANNELS 3 Zrotation Xrotation Yrotation
										End Site
										{
OFFSET 0 -0.403840 -0.000000
										}
									}
								}
								JOINT RThumb
								{
OFFSET 0 0.000000 0.000000
CHANNELS 3 Zrotation Xrotation Yrotation
									End Site
									{
OFFSET 0 -0.410000 0.410000
									}
								}
							}
						}
					}
				}
			}
		}
	}
}
MOTION
Frames: 10
Frame Time: 0.008333333333333333
19.063346 16.133451 5.410202 -171.260357 -71.329603 180.715426 0.000000 0.000000 0.000000 -21.853467 -8.662927 -20.241211 2.843843 10.437657 30.406138 0.050098 11.287770 -16.763661 0.661087 5.199209 14.477937 0.000000 0.000000 0.000000 -9.716694 38.729565 -54.414025 -14.996387 -19.386983 75.224567 -1.180551 -5.584873 19.445329 -0.007206 -0.547316 1.504034 2.694345 -0.778043 13.985864 5.764633 -0.592073 2.287776 4.710362 -0.424740 -5.387661 -1.876396 -0.883747 -8.215749 -13.216954 1.039930 26.973400 -4.374447 -1.657481 10.037819 0.000000 0.000000 0.000000 41.466232 22.401986 -6.669692 146.283619 -43.870723 106.082947 40.972986 -3.492430 5.646124 0.000000 0.000000 0.000000 -7.125000 0.000000 0.000000 10.426793 22.553176 5.724423 0.000000 0.000000 0.000000 -42.778827 21.944965 -24.313396 -120.639531 -56.126486 -86.188146 -10.550827 -6.562222 41.706438 0.000000 0.000000 0.000000 7.125000 0.000000 0.000000 37.256792 68.775920 -22.359797
19.082224 16.142515 5.430774 -171.896454 -71.225328 181.381957 0.000000 0.000000 0.000000 -22.103287 -8.585825 -20.204174 2.767972 10.309451 29.984886 0.029708 11.219129 -16.390417 0.673533 5.247856 14.616871 0.000000 0.000000 0.000000 -10.901605 38.953436 -55.479426 -15.598024 -19.527325 77.030610 -1.252188 -5.301179 20.065230 -0.006087 -0.502111 1.379757 2.708180 -0.816326 14.317357 5.732307 -0.631334 2.355742 4.684651 -0.446574 -5.495741 -2.548183 -0.928208 -7.507790 -12.483436 0.833811 25.888115 -3.934954 -1.644073 9.488380 0.000000 0.000000 0.000000 41.225913 21.551503 -6.171522 147.253580 -43.132061 106.750917 40.324633 -2.840380 5.535224 0.000000 0.000000 0.000000 -7.125000 0.000000 0.000000 9.980713 22.764355 5.421531 0.000000 0.000000 0.000000 -43.711126 20.799962 -24.868413 -123.022299 -55.445023 -88.160259 -10.949670 -6.600967 42.435028 0.000000 0.000000 0.000000 7.125000 0.000000 0.000000 38.142090 69.451041 -23.498307
19.099358 16.155038 5.448983 -172.367484 -71.049265 181.820524 0.000000 0.000000 0.000000 -22.308030 -8.338680 -20.107247 2.686318 10.168896 29.525570 0.008396 11.120500 -15.950711 0.659169 5.192902 14.459546 0.000000 0.000000 0.000000 -11.938194 39.184026 -56.450197 -16.187496 -19.646878 78.789306 -1.299912 -5.248270 20.462179 -0.009953 -0.638943 1.755889 2.702707 -0.868467 14.719939 5.691435 -0.691827 2.452881 4.666921 -0.479487 -5.610150 -2.772283 -0.799674 -6.383343 -12.272018 0.847020 24.342542 -3.701063 -1.504476 8.702227 0.000000 0.000000 0.000000 40.771700 20.864238 -5.857068 148.338028 -42.273778 107.486395 40.012177 -2.229794 5.716751 0.000000 0.000000 0.000000 -7.125000 0.000000 0.000000 9.728802 22.563649 5.325898 0.000000 0.000000 0.000000 -44.474271 19.473687 -25.134197 -125.116530 -54.780992 -89.878344 -11.457072 -6.715670 42.683936 0.000000 0.000000 0.000000 7.125000 0.000000 0.000000 38.082396 69.802169 -23.742012
19.113928 16.170904 5.463534 -172.668249 -70.899587 182.147025 0.000000 0.000000 0.000000 -22.442714 -8.159884 -20.026083 2.604572 10.025563 29.059736 -0.025048 11.142856 -15.490397 0.643302 5.131215 14.283150 0.000000 0.000000 0.000000 -12.884986 39.301926 -57.431912 -16.736727 -19.742453 80.419407 -1.347588 -5.408154 20.834092 -0.034737 -1.196380 3.289451 2.656564 -0.888658 15.038867 5.689671 -0.710080 2.462583 4.706970 -0.488339 -5.773435 -2.760955 -0.797122 -6.283086 -12.252772 0.830553 24.410524 -3.699246 -1.513285 8.704671 0.000000 0.000000 0.000000 40.218944 20.207469 -6.076617 149.579625 -41.249864 108.313851 39.522996 -1.366652 5.623530 0.000000 0.000000 0.000000 -7.125000 0.000000 0.000000 9.391299 22.731520 5.099792 0.000000 0.000000 0.000000 -45.201908 18.562426 -25.103435 -127.154822 -54.079137 -91.536977 -12.155373 -6.923047 42.966327 0.000000 0.000000 0.000000 7.125000 0.000000 0.000000 37.900456 70.242162 -23.972407
19.129640 16.185799 5.474820 -173.132322 -70.673009 182.718319 0.000000 0.000000 0.000000 -22.604329 -8.040284 -20.040335 2.530705 9.893427 28.632419 -0.052810 11.192364 -15.139139 0.665921 5.218443 14.532582 0.000000 0.000000 0.000000 -13.928107 39.339401 -58.555179 -17.229563 -19.814788 81.875726 -1.419233 -5.616727 21.382432 -0.046830 -1.395929 3.839010 2.579545 -0.819072 15.184881 5.597997 -0.629013 2.515148 4.639082 -0.447332 -5.802637 -2.745907 -0.709510 -5.990088 -12.155496 0.894023 24.072936 -3.642212 -1.440943 8.535111 0.000000 0.000000 0.000000 39.831662 19.170171 -6.954031 150.637701 -40.339758 109.005331 39.220445 -0.475321 5.552485 0.000000 0.000000 0.000000 -7.125000 0.000000 0.000000 9.183834 22.851201 4.958677 0.000000 0.000000 0.000000 -45.475866 17.704876 -25.202296 -128.838511 -53.452479 -92.895288 -12.262254 -7.264802 42.901997 0.000000 0.000000 0.000000 7.125000 0.000000 0.000000 37.663108 70.229964 -23.798831
19.147603 16.199977 5.483632 -173.326359 -70.428770 182.982489 0.000000 0.000000 0.000000 -22.639912 -7.976718 -20.031693 2.462655 9.769550 28.233733 -0.071766 11.209411 -14.866808 0.736760 5.482564 15.290514 0.000000 0.000000 0.000000 -14.764355 39.334557 -59.533650 -17.632457 -19.864786 83.062659 -1.502079 -5.728032 22.010620 -0.042536 -1.326421 3.647401 2.589350 -0.773692 15.346802 5.481682 -0.576269 2.646662 4.498623 -0.424888 -5.755217 -3.040521 -1.040649 -6.500393 -11.183988 0.363915 24.517474 -3.326354 -1.643333 8.754865 0.000000 0.000000 0.000000 39.282044 18.233971 -8.193243 151.616497 -39.464778 109.632614 38.835348 0.350278 5.654152 0.000000 0.000000 0.000000 -7.125000 0.000000 0.000000 8.891770 22.759918 4.815737 0.000000 0.000000 0.000000 -45.567461 16.930077 -24.895329 -130.348845 -52.851792 -94.103627 -12.051143 -7.877662 42.457455 0.000000 0.000000 0.000000 7.125000 0.000000 0.000000 37.035929 69.827788 -23.049567
19.162786 16.214720 5.490415 -173.333831 -70.240827 183.078633 0.000000 0.000000 0.000000 -22.615497 -7.983691 -20.009112 2.402737 9.658720 27.878625 -0.089014 11.248492 -14.649461 0.798212 5.702330 15.923098 0.000000 0.000000 0.000000 -15.443169 39.210404 -60.365730 -17.919200 -19.895687 83.905953 -1.583009 -5.770186 22.613784 -0.021783 -0.918142 2.523849 2.543096 -0.777853 15.479071 5.435619 -0.599033 2.779762 4.480271 -0.439353 -5.683995 -3.222286 -1.132178 -6.685552 -10.683453 0.189818 24.733748 -3.148759 -1.701522 8.857153 0.000000 0.000000 0.000000 38.539270 17.378050 -9.763509 152.568734 -38.585885 110.232527 38.738978 0.712139 5.917557 0.000000 0.000000 0.000000 -7.125000 0.000000 0.000000 8.785116 22.437219 4.822633 0.000000 0.000000 0.000000 -45.677527 16.252836 -24.220210 -131.692266 -52.288021 -95.170555 -11.383789 -8.869355 41.839913 0.000000 0.000000 0.000000 7.125000 0.000000 0.000000 36.605930 69.144180 -22.218986
19.176681 16.231318 5.496883 -173.335484 -70.085591 183.218220 0.000000 0.000000 0.000000 -22.595888 -8.086839 -20.024818 2.359001 9.576864 27.617176 -0.114499 11.394347 -14.459938 0.813422 5.755208 16.075759 0.000000 0.000000 0.000000 -16.080561 38.980469 -61.138151 -18.075562 -19.910973 84.365265 -1.684134 -5.898804 23.340089 -0.004510 -0.403109 1.107579 2.463964 -0.753244 15.581080 5.351725 -0.597793 2.972717 4.432125 -0.442672 -5.533792 -2.888435 -1.120673 -7.190283 -10.551573 0.198807 24.810411 -3.169387 -1.657266 8.974628 0.000000 0.000000 0.000000 37.805942 16.304567 -11.792659 153.240124 -37.948150 110.648498 38.842706 1.315782 5.883399 0.000000 0.000000 0.000000 -7.125000 0.000000 0.000000 8.864486 22.470007 4.860166 0.000000 0.000000 0.000000 -45.433612 15.482303 -23.628297 -132.674538 -51.857121 -95.945542 -10.652212 -9.541740 41.390894 0.000000 0.000000 0.000000 7.125000 0.000000 0.000000 36.582743 68.568574 -21.747240
19.190184 16.245825 5.501606 -173.034462 -69.915494 183.026297 0.000000 0.000000 0.000000 -22.448798 -8.220773 -20.040961 2.335844 9.533077 27.477611 -0.146685 11.660137 -14.352783 0.799069 5.705143 15.931382 0.000000 0.000000 0.000000 -16.506318 38.835503 -61.659327 -18.107248 -19.913884 84.458309 -1.789470 -6.005571 24.079682 -0.000861 -0.004170 0.011438 2.498910 -0.702546 15.736293 5.272762 -0.529790 3.061471 4.315750 -0.412430 -5.528511 -2.735435 -1.148665 -7.062559 -10.252334 0.070573 24.579706 -3.090356 -1.649150 8.860487 0.000000 0.000000 0.000000 37.002350 15.544798 -14.396682 153.829978 -37.374934 111.008853 38.025297 2.731587 4.950982 0.000000 0.000000 0.000000 -7.125000 0.000000 0.000000 8.394917 23.708697 4.363686 0.000000 0.000000 0.000000 -45.167518 15.297218 -22.572623 -133.639199 -51.415666 -96.701638 -10.395331 -9.709504 41.249406 0.000000 0.000000 0.000000 7.125000 0.000000 0.000000 36.609158 68.379462 -21.613922
19.211565 16.252193 5.504103 -172.200471 -69.890849 182.436694 0.000000 0.000000 0.000000 -22.044689 -8.547546 -20.208828 2.317151 9.497544 27.364488 -0.180691 11.935109 -14.232831 0.749998 5.530918 15.429391 0.000000 0.000000 0.000000 -16.761538 38.602249 -62.150869 -18.021188 -19.905791 84.205599 -1.879669 -6.057267 24.699504 -0.004047 0.383066 -1.052608 2.606477 -0.786517 15.918256 5.346692 -0.603001 2.962233 4.358999 -0.448963 -5.729594 -2.989349 -1.152115 -6.528871 -9.817619 -0.046436 24.315428 -2.888017 -1.658033 8.664537 0.000000 0.000000 0.000000 35.933111 15.433020 -17.250321 154.306732 -36.903703 111.297025 40.595952 1.523953 6.779306 0.000000 0.000000 0.000000 -7.125000 0.000000 0.000000 9.937329 21.077222 5.852758 0.000000 0.000000 0.000000 -45.278922 15.568821 -20.693260 -134.817085 -50.855479 -97.618812 -10.296920 -9.905241 41.268965 0.000000 0.000000 0.000000 7.125000 0.000000 0.000000 36.745150 68.363625 -21.689748
